<mxfile host="app.diagrams.net" agent="Mozilla/5.0 (X11; Linux x86_64) AppleWebKit/537.36 (KHTML, like Gecko) Chrome/128.0.0.0 Safari/537.36" version="24.7.7">
  <diagram name="Page-1" id="CBJSSlrNndhvOgpEdEat">
    <mxGraphModel dx="1368" dy="751" grid="1" gridSize="10" guides="1" tooltips="1" connect="1" arrows="1" fold="1" page="1" pageScale="1" pageWidth="850" pageHeight="1100" math="0" shadow="0">
      <root>
        <mxCell id="0" />
        <mxCell id="1" parent="0" />
        <mxCell id="g2XvvvATI8xom4pLKcPu-7" value="" style="endArrow=classic;html=1;rounded=0;" edge="1" parent="1">
          <mxGeometry width="50" height="50" relative="1" as="geometry">
            <mxPoint x="110" y="240" as="sourcePoint" />
            <mxPoint x="580" y="240" as="targetPoint" />
          </mxGeometry>
        </mxCell>
        <mxCell id="g2XvvvATI8xom4pLKcPu-23" value="&lt;font style=&quot;font-size: 12px;&quot;&gt;QUIC Stream&lt;/font&gt;" style="edgeLabel;html=1;align=center;verticalAlign=middle;resizable=0;points=[];" vertex="1" connectable="0" parent="g2XvvvATI8xom4pLKcPu-7">
          <mxGeometry x="-0.8571" y="1" relative="1" as="geometry">
            <mxPoint x="13" y="10" as="offset" />
          </mxGeometry>
        </mxCell>
        <mxCell id="g2XvvvATI8xom4pLKcPu-9" value="" style="rounded=1;whiteSpace=wrap;html=1;fillColor=default;dashed=1;strokeWidth=2;dashPattern=1 1;" vertex="1" parent="1">
          <mxGeometry x="360" y="210" width="198" height="60" as="geometry" />
        </mxCell>
        <mxCell id="g2XvvvATI8xom4pLKcPu-1" value="&lt;font style=&quot;font-size: 18px;&quot;&gt;Publisher&lt;/font&gt;" style="rounded=1;whiteSpace=wrap;html=1;" vertex="1" parent="1">
          <mxGeometry x="50" y="120" width="120" height="60" as="geometry" />
        </mxCell>
        <mxCell id="g2XvvvATI8xom4pLKcPu-2" value="&lt;font style=&quot;font-size: 18px;&quot;&gt;Relay Server&lt;/font&gt;" style="rounded=1;whiteSpace=wrap;html=1;" vertex="1" parent="1">
          <mxGeometry x="520" y="120" width="120" height="60" as="geometry" />
        </mxCell>
        <mxCell id="g2XvvvATI8xom4pLKcPu-3" value="&lt;font style=&quot;font-size: 18px;&quot;&gt;Subscriber&lt;/font&gt;" style="rounded=1;whiteSpace=wrap;html=1;" vertex="1" parent="1">
          <mxGeometry x="990" y="120" width="120" height="60" as="geometry" />
        </mxCell>
        <mxCell id="g2XvvvATI8xom4pLKcPu-4" value="" style="endArrow=none;dashed=1;html=1;rounded=0;entryX=0.5;entryY=1;entryDx=0;entryDy=0;" edge="1" parent="1" target="g2XvvvATI8xom4pLKcPu-1">
          <mxGeometry width="50" height="50" relative="1" as="geometry">
            <mxPoint x="110" y="540" as="sourcePoint" />
            <mxPoint x="450" y="360" as="targetPoint" />
          </mxGeometry>
        </mxCell>
        <mxCell id="g2XvvvATI8xom4pLKcPu-12" value="" style="verticalLabelPosition=bottom;verticalAlign=top;html=1;shape=mxgraph.basic.frame;dx=10;whiteSpace=wrap;" vertex="1" parent="1">
          <mxGeometry x="495" y="220" width="50" height="40" as="geometry" />
        </mxCell>
        <mxCell id="g2XvvvATI8xom4pLKcPu-14" value="&lt;font size=&quot;1&quot; style=&quot;&quot;&gt;&lt;b style=&quot;font-size: 18px;&quot;&gt;I&lt;/b&gt;&lt;/font&gt;" style="text;html=1;align=center;verticalAlign=middle;resizable=0;points=[];autosize=1;strokeColor=none;fillColor=none;" vertex="1" parent="1">
          <mxGeometry x="505" y="220" width="30" height="40" as="geometry" />
        </mxCell>
        <mxCell id="g2XvvvATI8xom4pLKcPu-17" value="" style="verticalLabelPosition=bottom;verticalAlign=top;html=1;shape=mxgraph.basic.frame;dx=10;whiteSpace=wrap;" vertex="1" parent="1">
          <mxGeometry x="433" y="220" width="50" height="40" as="geometry" />
        </mxCell>
        <mxCell id="g2XvvvATI8xom4pLKcPu-18" value="&lt;font size=&quot;1&quot; style=&quot;&quot;&gt;&lt;b style=&quot;font-size: 18px;&quot;&gt;P&lt;/b&gt;&lt;/font&gt;" style="text;html=1;align=center;verticalAlign=middle;resizable=0;points=[];autosize=1;strokeColor=none;fillColor=none;" vertex="1" parent="1">
          <mxGeometry x="438" y="220" width="40" height="40" as="geometry" />
        </mxCell>
        <mxCell id="g2XvvvATI8xom4pLKcPu-19" value="" style="verticalLabelPosition=bottom;verticalAlign=top;html=1;shape=mxgraph.basic.frame;dx=10;whiteSpace=wrap;" vertex="1" parent="1">
          <mxGeometry x="373" y="220" width="50" height="40" as="geometry" />
        </mxCell>
        <mxCell id="g2XvvvATI8xom4pLKcPu-20" value="&lt;font size=&quot;1&quot; style=&quot;&quot;&gt;&lt;b style=&quot;font-size: 18px;&quot;&gt;P&lt;/b&gt;&lt;/font&gt;" style="text;html=1;align=center;verticalAlign=middle;resizable=0;points=[];autosize=1;strokeColor=none;fillColor=none;" vertex="1" parent="1">
          <mxGeometry x="378" y="220" width="40" height="40" as="geometry" />
        </mxCell>
        <mxCell id="g2XvvvATI8xom4pLKcPu-24" value="Segment" style="text;html=1;align=center;verticalAlign=middle;resizable=0;points=[];autosize=1;strokeColor=none;fillColor=none;" vertex="1" parent="1">
          <mxGeometry x="423" y="270" width="70" height="30" as="geometry" />
        </mxCell>
        <mxCell id="g2XvvvATI8xom4pLKcPu-34" value="" style="endArrow=classic;html=1;rounded=0;" edge="1" parent="1">
          <mxGeometry width="50" height="50" relative="1" as="geometry">
            <mxPoint x="110" y="360" as="sourcePoint" />
            <mxPoint x="470" y="360" as="targetPoint" />
          </mxGeometry>
        </mxCell>
        <mxCell id="g2XvvvATI8xom4pLKcPu-36" value="" style="rounded=1;whiteSpace=wrap;html=1;fillColor=default;dashed=1;strokeWidth=2;dashPattern=1 1;" vertex="1" parent="1">
          <mxGeometry x="245" y="330" width="198" height="60" as="geometry" />
        </mxCell>
        <mxCell id="g2XvvvATI8xom4pLKcPu-37" value="" style="verticalLabelPosition=bottom;verticalAlign=top;html=1;shape=mxgraph.basic.frame;dx=10;whiteSpace=wrap;" vertex="1" parent="1">
          <mxGeometry x="380" y="340" width="50" height="40" as="geometry" />
        </mxCell>
        <mxCell id="g2XvvvATI8xom4pLKcPu-38" value="&lt;font size=&quot;1&quot; style=&quot;&quot;&gt;&lt;b style=&quot;font-size: 18px;&quot;&gt;I&lt;/b&gt;&lt;/font&gt;" style="text;html=1;align=center;verticalAlign=middle;resizable=0;points=[];autosize=1;strokeColor=none;fillColor=none;" vertex="1" parent="1">
          <mxGeometry x="390" y="340" width="30" height="40" as="geometry" />
        </mxCell>
        <mxCell id="g2XvvvATI8xom4pLKcPu-39" value="" style="verticalLabelPosition=bottom;verticalAlign=top;html=1;shape=mxgraph.basic.frame;dx=10;whiteSpace=wrap;" vertex="1" parent="1">
          <mxGeometry x="318" y="340" width="50" height="40" as="geometry" />
        </mxCell>
        <mxCell id="g2XvvvATI8xom4pLKcPu-40" value="&lt;font size=&quot;1&quot; style=&quot;&quot;&gt;&lt;b style=&quot;font-size: 18px;&quot;&gt;P&lt;/b&gt;&lt;/font&gt;" style="text;html=1;align=center;verticalAlign=middle;resizable=0;points=[];autosize=1;strokeColor=none;fillColor=none;" vertex="1" parent="1">
          <mxGeometry x="323" y="340" width="40" height="40" as="geometry" />
        </mxCell>
        <mxCell id="g2XvvvATI8xom4pLKcPu-41" value="" style="verticalLabelPosition=bottom;verticalAlign=top;html=1;shape=mxgraph.basic.frame;dx=10;whiteSpace=wrap;" vertex="1" parent="1">
          <mxGeometry x="258" y="340" width="50" height="40" as="geometry" />
        </mxCell>
        <mxCell id="g2XvvvATI8xom4pLKcPu-42" value="&lt;font size=&quot;1&quot; style=&quot;&quot;&gt;&lt;b style=&quot;font-size: 18px;&quot;&gt;P&lt;/b&gt;&lt;/font&gt;" style="text;html=1;align=center;verticalAlign=middle;resizable=0;points=[];autosize=1;strokeColor=none;fillColor=none;" vertex="1" parent="1">
          <mxGeometry x="263" y="340" width="40" height="40" as="geometry" />
        </mxCell>
        <mxCell id="g2XvvvATI8xom4pLKcPu-44" value="" style="endArrow=classic;html=1;rounded=0;" edge="1" parent="1">
          <mxGeometry width="50" height="50" relative="1" as="geometry">
            <mxPoint x="110" y="475" as="sourcePoint" />
            <mxPoint x="340" y="475" as="targetPoint" />
          </mxGeometry>
        </mxCell>
        <mxCell id="g2XvvvATI8xom4pLKcPu-45" value="" style="rounded=1;whiteSpace=wrap;html=1;fillColor=default;dashed=1;strokeWidth=2;dashPattern=1 1;" vertex="1" parent="1">
          <mxGeometry x="120" y="445" width="198" height="60" as="geometry" />
        </mxCell>
        <mxCell id="g2XvvvATI8xom4pLKcPu-46" value="" style="verticalLabelPosition=bottom;verticalAlign=top;html=1;shape=mxgraph.basic.frame;dx=10;whiteSpace=wrap;" vertex="1" parent="1">
          <mxGeometry x="255" y="455" width="50" height="40" as="geometry" />
        </mxCell>
        <mxCell id="g2XvvvATI8xom4pLKcPu-47" value="&lt;font size=&quot;1&quot; style=&quot;&quot;&gt;&lt;b style=&quot;font-size: 18px;&quot;&gt;I&lt;/b&gt;&lt;/font&gt;" style="text;html=1;align=center;verticalAlign=middle;resizable=0;points=[];autosize=1;strokeColor=none;fillColor=none;" vertex="1" parent="1">
          <mxGeometry x="265" y="455" width="30" height="40" as="geometry" />
        </mxCell>
        <mxCell id="g2XvvvATI8xom4pLKcPu-48" value="" style="verticalLabelPosition=bottom;verticalAlign=top;html=1;shape=mxgraph.basic.frame;dx=10;whiteSpace=wrap;" vertex="1" parent="1">
          <mxGeometry x="193" y="455" width="50" height="40" as="geometry" />
        </mxCell>
        <mxCell id="g2XvvvATI8xom4pLKcPu-49" value="&lt;font size=&quot;1&quot; style=&quot;&quot;&gt;&lt;b style=&quot;font-size: 18px;&quot;&gt;P&lt;/b&gt;&lt;/font&gt;" style="text;html=1;align=center;verticalAlign=middle;resizable=0;points=[];autosize=1;strokeColor=none;fillColor=none;" vertex="1" parent="1">
          <mxGeometry x="198" y="455" width="40" height="40" as="geometry" />
        </mxCell>
        <mxCell id="g2XvvvATI8xom4pLKcPu-50" value="" style="verticalLabelPosition=bottom;verticalAlign=top;html=1;shape=mxgraph.basic.frame;dx=10;whiteSpace=wrap;" vertex="1" parent="1">
          <mxGeometry x="133" y="455" width="50" height="40" as="geometry" />
        </mxCell>
        <mxCell id="g2XvvvATI8xom4pLKcPu-51" value="&lt;font size=&quot;1&quot; style=&quot;&quot;&gt;&lt;b style=&quot;font-size: 18px;&quot;&gt;P&lt;/b&gt;&lt;/font&gt;" style="text;html=1;align=center;verticalAlign=middle;resizable=0;points=[];autosize=1;strokeColor=none;fillColor=none;" vertex="1" parent="1">
          <mxGeometry x="138" y="455" width="40" height="40" as="geometry" />
        </mxCell>
        <mxCell id="g2XvvvATI8xom4pLKcPu-52" value="" style="endArrow=none;dashed=1;html=1;rounded=0;entryX=0.5;entryY=1;entryDx=0;entryDy=0;" edge="1" parent="1">
          <mxGeometry width="50" height="50" relative="1" as="geometry">
            <mxPoint x="580" y="540" as="sourcePoint" />
            <mxPoint x="580" y="180" as="targetPoint" />
          </mxGeometry>
        </mxCell>
        <mxCell id="g2XvvvATI8xom4pLKcPu-53" value="" style="endArrow=none;dashed=1;html=1;rounded=0;entryX=0.5;entryY=1;entryDx=0;entryDy=0;" edge="1" parent="1">
          <mxGeometry width="50" height="50" relative="1" as="geometry">
            <mxPoint x="1050" y="540" as="sourcePoint" />
            <mxPoint x="1050" y="180" as="targetPoint" />
          </mxGeometry>
        </mxCell>
        <mxCell id="g2XvvvATI8xom4pLKcPu-54" value="" style="endArrow=classic;html=1;rounded=0;" edge="1" parent="1">
          <mxGeometry width="50" height="50" relative="1" as="geometry">
            <mxPoint x="580" y="259" as="sourcePoint" />
            <mxPoint x="1050" y="259" as="targetPoint" />
          </mxGeometry>
        </mxCell>
        <mxCell id="g2XvvvATI8xom4pLKcPu-56" value="" style="rounded=1;whiteSpace=wrap;html=1;fillColor=default;dashed=1;strokeWidth=2;dashPattern=1 1;" vertex="1" parent="1">
          <mxGeometry x="640" y="230" width="380" height="60" as="geometry" />
        </mxCell>
        <mxCell id="g2XvvvATI8xom4pLKcPu-57" value="" style="verticalLabelPosition=bottom;verticalAlign=top;html=1;shape=mxgraph.basic.frame;dx=10;whiteSpace=wrap;" vertex="1" parent="1">
          <mxGeometry x="825" y="240" width="50" height="40" as="geometry" />
        </mxCell>
        <mxCell id="g2XvvvATI8xom4pLKcPu-58" value="&lt;font size=&quot;1&quot; style=&quot;&quot;&gt;&lt;b style=&quot;font-size: 18px;&quot;&gt;I&lt;/b&gt;&lt;/font&gt;" style="text;html=1;align=center;verticalAlign=middle;resizable=0;points=[];autosize=1;strokeColor=none;fillColor=none;" vertex="1" parent="1">
          <mxGeometry x="835" y="240" width="30" height="40" as="geometry" />
        </mxCell>
        <mxCell id="g2XvvvATI8xom4pLKcPu-59" value="" style="verticalLabelPosition=bottom;verticalAlign=top;html=1;shape=mxgraph.basic.frame;dx=10;whiteSpace=wrap;" vertex="1" parent="1">
          <mxGeometry x="743" y="240" width="50" height="40" as="geometry" />
        </mxCell>
        <mxCell id="g2XvvvATI8xom4pLKcPu-60" value="&lt;font size=&quot;1&quot; style=&quot;&quot;&gt;&lt;b style=&quot;font-size: 18px;&quot;&gt;P&lt;/b&gt;&lt;/font&gt;" style="text;html=1;align=center;verticalAlign=middle;resizable=0;points=[];autosize=1;strokeColor=none;fillColor=none;" vertex="1" parent="1">
          <mxGeometry x="748" y="240" width="40" height="40" as="geometry" />
        </mxCell>
        <mxCell id="g2XvvvATI8xom4pLKcPu-61" value="" style="verticalLabelPosition=bottom;verticalAlign=top;html=1;shape=mxgraph.basic.frame;dx=10;whiteSpace=wrap;" vertex="1" parent="1">
          <mxGeometry x="653" y="240" width="50" height="40" as="geometry" />
        </mxCell>
        <mxCell id="g2XvvvATI8xom4pLKcPu-62" value="&lt;font size=&quot;1&quot; style=&quot;&quot;&gt;&lt;b style=&quot;font-size: 18px;&quot;&gt;P&lt;/b&gt;&lt;/font&gt;" style="text;html=1;align=center;verticalAlign=middle;resizable=0;points=[];autosize=1;strokeColor=none;fillColor=none;" vertex="1" parent="1">
          <mxGeometry x="658" y="240" width="40" height="40" as="geometry" />
        </mxCell>
        <mxCell id="g2XvvvATI8xom4pLKcPu-63" value="" style="endArrow=classic;html=1;rounded=0;" edge="1" parent="1">
          <mxGeometry width="50" height="50" relative="1" as="geometry">
            <mxPoint x="580" y="379" as="sourcePoint" />
            <mxPoint x="960" y="380" as="targetPoint" />
          </mxGeometry>
        </mxCell>
        <mxCell id="g2XvvvATI8xom4pLKcPu-71" style="rounded=0;orthogonalLoop=1;jettySize=auto;html=1;exitX=1;exitY=0;exitDx=0;exitDy=0;endArrow=none;endFill=0;strokeColor=#FF3333;strokeWidth=3;dashed=1;" edge="1" parent="1" source="g2XvvvATI8xom4pLKcPu-64">
          <mxGeometry relative="1" as="geometry">
            <mxPoint x="930" y="290" as="targetPoint" />
            <mxPoint x="930" y="350" as="sourcePoint" />
          </mxGeometry>
        </mxCell>
        <mxCell id="g2XvvvATI8xom4pLKcPu-64" value="" style="rounded=1;whiteSpace=wrap;html=1;fillColor=default;dashed=1;strokeWidth=2;dashPattern=1 1;" vertex="1" parent="1">
          <mxGeometry x="610" y="350" width="320" height="60" as="geometry" />
        </mxCell>
        <mxCell id="g2XvvvATI8xom4pLKcPu-65" value="" style="verticalLabelPosition=bottom;verticalAlign=top;html=1;shape=mxgraph.basic.frame;dx=10;whiteSpace=wrap;" vertex="1" parent="1">
          <mxGeometry x="785" y="360" width="50" height="40" as="geometry" />
        </mxCell>
        <mxCell id="g2XvvvATI8xom4pLKcPu-66" value="&lt;font size=&quot;1&quot; style=&quot;&quot;&gt;&lt;b style=&quot;font-size: 18px;&quot;&gt;I&lt;/b&gt;&lt;/font&gt;" style="text;html=1;align=center;verticalAlign=middle;resizable=0;points=[];autosize=1;strokeColor=none;fillColor=none;" vertex="1" parent="1">
          <mxGeometry x="795" y="360" width="30" height="40" as="geometry" />
        </mxCell>
        <mxCell id="g2XvvvATI8xom4pLKcPu-67" value="" style="verticalLabelPosition=bottom;verticalAlign=top;html=1;shape=mxgraph.basic.frame;dx=10;whiteSpace=wrap;" vertex="1" parent="1">
          <mxGeometry x="713" y="360" width="50" height="40" as="geometry" />
        </mxCell>
        <mxCell id="g2XvvvATI8xom4pLKcPu-68" value="&lt;font size=&quot;1&quot; style=&quot;&quot;&gt;&lt;b style=&quot;font-size: 18px;&quot;&gt;P&lt;/b&gt;&lt;/font&gt;" style="text;html=1;align=center;verticalAlign=middle;resizable=0;points=[];autosize=1;strokeColor=none;fillColor=none;" vertex="1" parent="1">
          <mxGeometry x="718" y="360" width="40" height="40" as="geometry" />
        </mxCell>
        <mxCell id="g2XvvvATI8xom4pLKcPu-69" value="" style="verticalLabelPosition=bottom;verticalAlign=top;html=1;shape=mxgraph.basic.frame;dx=10;whiteSpace=wrap;" vertex="1" parent="1">
          <mxGeometry x="623" y="360" width="50" height="40" as="geometry" />
        </mxCell>
        <mxCell id="g2XvvvATI8xom4pLKcPu-70" value="&lt;font size=&quot;1&quot; style=&quot;&quot;&gt;&lt;b style=&quot;font-size: 18px;&quot;&gt;P&lt;/b&gt;&lt;/font&gt;" style="text;html=1;align=center;verticalAlign=middle;resizable=0;points=[];autosize=1;strokeColor=none;fillColor=none;" vertex="1" parent="1">
          <mxGeometry x="628" y="360" width="40" height="40" as="geometry" />
        </mxCell>
        <mxCell id="g2XvvvATI8xom4pLKcPu-72" value="" style="endArrow=classic;html=1;rounded=0;" edge="1" parent="1">
          <mxGeometry width="50" height="50" relative="1" as="geometry">
            <mxPoint x="580" y="499" as="sourcePoint" />
            <mxPoint x="900" y="500" as="targetPoint" />
          </mxGeometry>
        </mxCell>
        <mxCell id="g2XvvvATI8xom4pLKcPu-74" value="" style="rounded=1;whiteSpace=wrap;html=1;fillColor=default;dashed=1;strokeWidth=2;dashPattern=1 1;" vertex="1" parent="1">
          <mxGeometry x="590" y="470" width="280" height="60" as="geometry" />
        </mxCell>
        <mxCell id="g2XvvvATI8xom4pLKcPu-75" value="" style="verticalLabelPosition=bottom;verticalAlign=top;html=1;shape=mxgraph.basic.frame;dx=10;whiteSpace=wrap;" vertex="1" parent="1">
          <mxGeometry x="755" y="480" width="50" height="40" as="geometry" />
        </mxCell>
        <mxCell id="g2XvvvATI8xom4pLKcPu-76" value="&lt;font size=&quot;1&quot; style=&quot;&quot;&gt;&lt;b style=&quot;font-size: 18px;&quot;&gt;I&lt;/b&gt;&lt;/font&gt;" style="text;html=1;align=center;verticalAlign=middle;resizable=0;points=[];autosize=1;strokeColor=none;fillColor=none;" vertex="1" parent="1">
          <mxGeometry x="765" y="480" width="30" height="40" as="geometry" />
        </mxCell>
        <mxCell id="g2XvvvATI8xom4pLKcPu-77" value="" style="verticalLabelPosition=bottom;verticalAlign=top;html=1;shape=mxgraph.basic.frame;dx=10;whiteSpace=wrap;" vertex="1" parent="1">
          <mxGeometry x="693" y="480" width="50" height="40" as="geometry" />
        </mxCell>
        <mxCell id="g2XvvvATI8xom4pLKcPu-78" value="&lt;font size=&quot;1&quot; style=&quot;&quot;&gt;&lt;b style=&quot;font-size: 18px;&quot;&gt;P&lt;/b&gt;&lt;/font&gt;" style="text;html=1;align=center;verticalAlign=middle;resizable=0;points=[];autosize=1;strokeColor=none;fillColor=none;" vertex="1" parent="1">
          <mxGeometry x="698" y="480" width="40" height="40" as="geometry" />
        </mxCell>
        <mxCell id="g2XvvvATI8xom4pLKcPu-79" value="" style="verticalLabelPosition=bottom;verticalAlign=top;html=1;shape=mxgraph.basic.frame;dx=10;whiteSpace=wrap;" vertex="1" parent="1">
          <mxGeometry x="603" y="480" width="50" height="40" as="geometry" />
        </mxCell>
        <mxCell id="g2XvvvATI8xom4pLKcPu-80" value="&lt;font size=&quot;1&quot; style=&quot;&quot;&gt;&lt;b style=&quot;font-size: 18px;&quot;&gt;P&lt;/b&gt;&lt;/font&gt;" style="text;html=1;align=center;verticalAlign=middle;resizable=0;points=[];autosize=1;strokeColor=none;fillColor=none;" vertex="1" parent="1">
          <mxGeometry x="608" y="480" width="40" height="40" as="geometry" />
        </mxCell>
        <mxCell id="g2XvvvATI8xom4pLKcPu-81" style="rounded=0;orthogonalLoop=1;jettySize=auto;html=1;exitX=1;exitY=0;exitDx=0;exitDy=0;dashed=1;endArrow=none;endFill=0;strokeColor=#FF3333;strokeWidth=3;" edge="1" parent="1" source="g2XvvvATI8xom4pLKcPu-74">
          <mxGeometry relative="1" as="geometry">
            <mxPoint x="870" y="410" as="targetPoint" />
            <mxPoint x="870" y="450" as="sourcePoint" />
          </mxGeometry>
        </mxCell>
        <mxCell id="g2XvvvATI8xom4pLKcPu-82" value="" style="verticalLabelPosition=bottom;shadow=0;dashed=0;align=center;html=1;verticalAlign=top;strokeWidth=1;shape=mxgraph.mockup.markup.curlyBrace;whiteSpace=wrap;strokeColor=#000000;" vertex="1" parent="1">
          <mxGeometry x="183" y="110" width="330" height="20" as="geometry" />
        </mxCell>
        <mxCell id="g2XvvvATI8xom4pLKcPu-83" value="&lt;font style=&quot;font-size: 16px;&quot;&gt;No applied network conditions&lt;/font&gt;" style="text;html=1;align=center;verticalAlign=middle;resizable=0;points=[];autosize=1;strokeColor=none;fillColor=none;" vertex="1" parent="1">
          <mxGeometry x="228" y="70" width="240" height="30" as="geometry" />
        </mxCell>
        <mxCell id="g2XvvvATI8xom4pLKcPu-84" value="" style="verticalLabelPosition=bottom;shadow=0;dashed=0;align=center;html=1;verticalAlign=top;strokeWidth=1;shape=mxgraph.mockup.markup.curlyBrace;whiteSpace=wrap;strokeColor=#000000;" vertex="1" parent="1">
          <mxGeometry x="648" y="110" width="330" height="20" as="geometry" />
        </mxCell>
        <mxCell id="g2XvvvATI8xom4pLKcPu-85" value="&lt;font style=&quot;font-size: 16px;&quot;&gt;Bad network conditions&lt;/font&gt;" style="text;html=1;align=center;verticalAlign=middle;resizable=0;points=[];autosize=1;strokeColor=none;fillColor=none;" vertex="1" parent="1">
          <mxGeometry x="718" y="70" width="190" height="30" as="geometry" />
        </mxCell>
        <mxCell id="g2XvvvATI8xom4pLKcPu-86" value="" style="endArrow=classic;html=1;rounded=0;" edge="1" parent="1">
          <mxGeometry width="50" height="50" relative="1" as="geometry">
            <mxPoint x="50" y="220" as="sourcePoint" />
            <mxPoint x="50" y="490" as="targetPoint" />
          </mxGeometry>
        </mxCell>
        <mxCell id="g2XvvvATI8xom4pLKcPu-87" value="&lt;font style=&quot;font-size: 14px;&quot;&gt;Newer Data&lt;/font&gt;" style="edgeLabel;html=1;align=center;verticalAlign=middle;resizable=0;points=[];" vertex="1" connectable="0" parent="g2XvvvATI8xom4pLKcPu-86">
          <mxGeometry x="-0.3926" y="3" relative="1" as="geometry">
            <mxPoint x="-8" y="48" as="offset" />
          </mxGeometry>
        </mxCell>
      </root>
    </mxGraphModel>
  </diagram>
</mxfile>
